<svg xmlns="http://www.w3.org/2000/svg" viewBox="0.0931244 0 799.7 595.3">
	<path d="M423.5.7c-3.8.1-20.7.7-37.5 1.3-16.8.5-37.4 1.3-45.8 1.6l-15.3.6.5 6.7c.3 3.6.9 13.3 1.2 21.5l.6 14.8 17.7-.3 17.6-.4.7 20c1.7 51.5 2.8 83.1 3.4 95.3l.7 13.3 18.6-.6c10.2-.3 21.9-.8 25.9-1.1l7.4-.6-.6-7.6c-.3-4.3-1.1-22.6-1.7-40.7-.6-18.2-1.4-43.4-1.8-56-.5-12.7-.7-23.3-.4-23.8.2-.4 3.9-.7 8.1-.7s12-.3 17.2-.6l9.6-.7-.3-15.1c-.2-8.3-.6-17.9-.9-21.4L447.8 0l-8.6.2c-4.8.1-11.8.3-15.7.5m82.4 17.2c-7.2 18.8-54.8 159.6-54.2 160.2.8.8 47.5 17 47.9 16.6.1-.1 4.8-13.5 10.4-29.7s18-52.3 27.6-80.3c9.7-27.9 17.4-51.2 17.2-51.8s-11.1-4.9-24.2-9.4l-23.8-8.2ZM240.5 34.6c-12.6 5.7-22.9 10.9-22.7 11.4.1.6 12.2 28 26.9 60.8 14.6 32.8 29.9 67.3 34.1 76.7 4.1 9.3 7.8 17.4 8.2 17.8.9 1 47-19.2 47-20.5 0-.5-10.2-23.7-22.6-51.6s-28-63-34.7-78c-6.6-14.9-12.3-27.2-12.6-27.1-.4 0-10.9 4.8-23.6 10.5m387 66.5c-20.2 3.1-40.8 14.9-58.4 33.4-19.9 21.1-29.2 40.9-29.3 62.4-.1 12.1 1.3 18.2 6.4 29 8.1 16.9 25.9 30.7 44.8 34.7 8.8 1.9 22.3 1.4 31.5-1 8.4-2.2 24.7-10.5 33-16.8 9.9-7.5 23.2-21 29.4-29.8 11.9-16.9 17.4-32 17.4-48 0-18.4-5.8-32.6-18.8-45.5-8.6-8.7-15.7-13-26.7-16.3-7.9-2.5-21-3.4-29.3-2.1m19.1 48.5c1.8.9 4.3 3.1 5.4 4.9 5.3 8.5.8 17.7-17.5 36.1-13.6 13.6-22.6 20.3-30 22.4-5.7 1.6-8.3.9-12.7-3.5-6.1-6.1-5.8-11.6 1.3-22.6 7.1-10.9 27.5-30 37.9-35.4 7.3-3.8 10.8-4.2 15.6-1.9M137.2 116c-10.2 2.7-18.5 6.9-26.9 13.7-7.2 5.9-46.6 48.9-46.1 50.3.2.5 23.9 22.1 52.8 48 28.9 26 57.4 51.7 63.5 57.1 10.3 9.4 11 9.9 12.6 8.2 12.9-13.8 41.1-46.1 43.8-50.3 15.4-24 13.9-52.6-4.2-80.3-22.9-35.1-63.7-55-95.5-46.7m21.4 49.3c13.8 7 33.7 25.7 39.3 36.9 4.1 8.2 4.1 13.5 0 20.7l-3.1 5.3-2.1-1.9c-38.5-34.3-62.6-56.6-62.1-57.4.3-.6 2.5-2.4 4.7-4.1 3.9-2.8 4.6-3 11.2-2.6 4.9.4 8.5 1.3 12.1 3.1m211.9 22.3c-81.6 12.6-148 72.5-168.5 151.9-5.1 19.7-6.3 31.8-5.7 56.8.4 18.9.9 24.1 3.1 34.7 17.7 83.3 80.9 145.5 164.3 161.6 12.5 2.5 16 2.7 36.8 2.7 19.3 0 24.9-.3 34.9-2.1 33.7-6.2 64.3-19.6 91.1-40 3.3-2.6 11.3-9.8 17.9-16.2 27.2-26.5 45.8-58.3 55.1-94.5 4.6-18 6.5-32.7 6.5-51.4 0-24-2.9-42.6-10.1-64.6-24.1-73.5-88.3-127.4-165.6-139-13-1.9-47-1.9-59.8.1M427 250.5l3 1.6V368.7c0 86.1.3 117.6 1.2 120.5 2.6 8.6 11.1 12.8 26.3 12.8H465v16H338V502.3l11.5-.5c14.7-.7 19.6-2.8 23.5-10.3l2.5-4.9V394.5c0-83.7-.1-92.3-1.7-95.7-3.5-7.7-9.3-8.5-25.6-3.3-4.6 1.5-8.5 2.5-8.7 2.3s-.5-3.9-.7-8.1l-.3-7.7 22-7.4c21.1-7.1 44.4-16.4 56.4-22.6 6.6-3.4 6.4-3.4 10.1-1.5M754 258c-18.1 4-20.8 4.6-60 12.9-47.2 10-70.7 15-79.2 16.8-10.1 2-9.7 1.2-6.9 13.5 1 4.6 3.1 14.4 4.6 21.8 1.6 7.4 3.2 13.9 3.6 14.4.5.5 9-.9 20.1-3.3 34.2-7.3 41.8-8.8 41.8-8.5s-33 26-49.6 38.6l-6.1 4.7 4.5 21.3c2.4 11.7 4.6 21.4 4.7 21.6.3.3 8.6-1.3 27-5.3 6.1-1.3 19.8-4.2 30.5-6.5 20.4-4.3 60.1-12.7 75.5-16 5-1.1 14.9-3.1 22-4.6 7.2-1.5 13.1-2.8 13.3-2.9.1-.1-1.2-6.7-2.8-14.6-1.7-7.9-4-18.6-5.1-23.8-1-5.2-2.1-9.6-2.3-9.8-.3-.4-46.3 9.1-55.1 11.3-2.7.6-2.9.6-1.7-.9.7-.8 7.2-6.1 14.5-11.6 30.3-23.1 36.2-27.9 36-29.2-.3-2.2-8.4-40.2-8.9-42.2-.7-2.1.6-2.3-20.4 2.3M13.7 298.6c-1.6 9.9-4.1 26-5.7 35.9s-4.1 25.6-5.5 34.8C1 378.6 0 386.3.1 386.4c.2.2 6.7 1.3 14.4 2.4 7.7 1.2 19.6 3.1 26.5 4.2s15.4 2.5 19 3 12.1 1.9 19 3c26 4.2 38.7 6.2 44.5 7.1 3.3.5 11.6 1.8 18.5 2.9 19.6 3.2 27.2 4.2 27.6 3.7.5-.4 2.6-13.4 9.4-56.2 1.7-11 4.3-26.9 5.6-35.4 1.4-8.4 2.4-15.4 2.2-15.6-.3-.1-23.4-3.8-38.4-6.1l-4-.6-1.2 6.9c-3 17.3-7.2 44.4-7.2 46.3 0 1.1-.7 2.3-1.5 2.6-1.2.5-20.5-2.2-21.1-2.9-.1-.1 1.6-11 3.7-24.2S121 303 121 302.3c0-1.3-.7-1.5-19.5-4.3-7.7-1.2-15.9-2.5-18.3-3-3-.5-4.5-.4-4.8.4-.2.6-2.1 11.9-4.2 25.1l-3.9 24-4.4-.3c-2.4-.1-6.8-.7-9.8-1.3l-5.3-1.1.7-4.1c.4-2.3 1-6.7 1.5-9.7s2-12.9 3.4-21.8c1.4-9 2.6-16.9 2.6-17.6 0-1.1-18.4-4.6-38-7.2l-4.5-.6Z" fill="#000000"/>
</svg>