<?xml version="1.0" standalone="no"?>
<!DOCTYPE svg PUBLIC "-//W3C//DTD SVG 20010904//EN"
 "http://www.w3.org/TR/2001/REC-SVG-20010904/DTD/svg10.dtd">
<svg version="1.0" xmlns="http://www.w3.org/2000/svg"
 width="514.000000pt" height="466.000000pt" viewBox="0 0 514.000000 466.000000"
 preserveAspectRatio="xMidYMid meet">

<g transform="translate(0.000000,466.000000) scale(0.100000,-0.100000)"
fill="#000000" stroke="none">
<path d="M2564 4648 c-12 -5 -27 -20 -33 -32 -6 -11 -139 -383 -296 -826 -230
-652 -289 -809 -310 -827 l-26 -23 -898 0 c-638 0 -907 -3 -930 -11 -39 -14
-55 -49 -40 -83 6 -13 150 -122 340 -256 181 -128 329 -236 329 -239 0 -4 -14
-15 -30 -24 -38 -23 -60 -65 -60 -114 0 -35 19 -59 256 -333 141 -162 302
-349 357 -415 55 -66 112 -129 125 -141 l25 -20 -27 -80 -26 -80 -68 23 c-37
12 -76 23 -87 23 -39 1 -43 11 -33 76 13 81 -9 193 -57 290 -42 86 -141 185
-227 226 -280 137 -582 30 -724 -256 -40 -81 -49 -111 -66 -222 -11 -71 -26
-150 -34 -176 -28 -93 -13 -156 48 -201 46 -33 44 -33 523 -172 398 -116 538
-162 532 -175 -1 -3 -40 -119 -87 -258 -81 -241 -84 -253 -70 -280 12 -20 24
-28 50 -29 31 -3 118 53 789 507 531 359 763 510 782 510 18 0 149 -84 430
-276 1151 -789 1086 -746 1121 -742 23 2 37 11 48 31 14 27 10 41 -113 405
-103 305 -122 370 -100 342 79 -104 196 -190 313 -231 88 -31 259 -38 351 -15
216 54 392 224 459 441 49 160 34 337 -42 494 -80 168 -260 308 -443 346 -156
33 -323 3 -456 -81 l-43 -27 18 27 c9 15 69 108 131 207 63 98 132 196 154
217 34 32 41 45 41 77 0 25 -7 46 -21 61 l-20 22 308 217 c415 294 419 297
405 348 -12 47 -14 47 -971 47 l-900 0 -26 23 c-21 18 -75 166 -300 827 -151
443 -279 815 -286 826 -9 17 -52 47 -62 43 -1 0 -12 -5 -23 -11z m51 -1453
c218 -46 393 -217 450 -440 18 -69 20 -202 4 -277 -6 -29 -29 -91 -51 -138
-106 -222 -347 -354 -586 -320 -207 29 -383 171 -463 375 -40 101 -51 249 -25
357 72 309 371 506 671 443z m1152 -466 c76 -65 92 -83 102 -122 16 -56 12
-75 -50 -226 -27 -67 -49 -126 -49 -131 0 -5 56 28 124 75 183 124 213 124
364 -1 l94 -76 -30 -18 c-22 -14 -89 -117 -245 -377 -247 -412 -259 -435 -250
-460 8 -22 13 -25 -124 87 -120 98 -135 120 -106 153 43 48 294 430 279 424
-9 -4 -112 -66 -228 -139 -117 -72 -222 -132 -233 -132 -13 -1 -21 6 -23 19
-2 12 38 131 87 265 50 134 89 245 87 247 -8 8 -342 -351 -357 -383 l-16 -35
-104 87 c-57 47 -109 93 -116 103 -19 24 -15 49 8 62 20 10 481 447 607 574
36 37 52 61 52 80 0 32 -1 32 127 -76z m-2344 -137 c119 -56 209 -177 223
-301 l6 -56 97 0 c92 0 101 -2 172 -37 44 -22 104 -63 144 -100 37 -35 79 -68
93 -73 24 -10 21 -13 -82 -103 -124 -108 -171 -142 -199 -142 -11 0 -37 20
-59 45 -29 33 -53 49 -91 60 -60 18 -80 18 -145 4 -95 -20 -95 -23 3 -133 48
-54 100 -106 116 -115 l29 -18 -120 -104 c-162 -141 -187 -147 -251 -62 -20
26 -181 214 -358 418 l-321 370 48 21 c39 17 65 41 125 116 78 97 149 159 225
197 116 59 238 63 345 13z m-679 -864 c220 -72 344 -305 281 -528 -9 -30 -17
-62 -18 -70 -2 -16 92 -45 188 -58 l60 -7 3 -38 c2 -23 -15 -101 -44 -202
l-47 -164 -31 24 c-23 17 -168 64 -499 160 -464 134 -523 154 -533 179 -3 8 2
41 10 74 9 33 16 79 16 101 0 74 30 194 69 276 109 231 318 328 545 253z
m3885 7 c93 -24 162 -66 242 -145 94 -93 142 -184 166 -314 14 -80 15 -97 1
-181 -39 -234 -203 -419 -420 -470 -281 -66 -559 96 -654 380 -66 201 -11 438
137 586 109 109 227 158 379 159 52 0 119 -7 149 -15z m-773 -449 c1 -1 -2
-37 -5 -81 l-6 -79 -24 74 c-13 41 -26 81 -28 87 -4 10 4 11 28 7 19 -4 34 -7
35 -8z"/>
<path d="M2450 2861 c-79 -26 -148 -91 -168 -160 -53 -175 60 -345 227 -343
73 1 126 26 174 82 44 52 61 112 55 193 -8 97 -53 168 -131 208 -44 23 -120
32 -157 20z"/>
<path d="M1160 2364 c-19 -8 -47 -27 -62 -41 l-27 -26 62 -71 c34 -38 87 -97
118 -129 l55 -60 38 33 c80 71 83 121 11 213 -74 93 -121 113 -195 81z"/>
<path d="M508 1487 c-20 -12 -49 -38 -64 -57 -27 -36 -67 -120 -61 -126 8 -8
362 -112 368 -108 13 8 31 134 24 172 -3 21 -15 53 -25 70 -42 69 -167 95
-242 49z"/>
<path d="M4428 1420 c-198 -60 -223 -364 -38 -457 57 -30 145 -31 198 -4 147
76 175 281 54 402 -62 62 -137 82 -214 59z"/>
</g>
</svg>
